<svg xmlns="http://www.w3.org/2000/svg" viewBox="0 0 39 39"><path d="M1 1h7v7h-7zM9 1h4v1h1v-1h1v1h2v1h1v-1h-1v-1h2v3h-2v1h-3v4h1v1h-1v1h-1v-2h-1v-1h1v-1h-1v-1h1v-1h-1v1h-1v-1h-1v1h1v1h-1v1h1v1h1v2h1v1h-1v1h-1v-3h-4v-1h2v-5h1v-1h2v-1h-3zM20 1h2v1h-1v1h-1zM26 1h4v1h-3v1h-1v1h2v-1h1v1h1v2h-3v1h-1v1h-1v-2h1v-1h-1v-2h-2v-1h3zM31 1h7v7h-7zM2 2v5h5v-5zM32 2v5h5v-5zM3 3h3v3h-3zM15 3v1h1v-1zM22 3h1v1h-1zM33 3h3v3h-3zM19 4h1v1h-1zM18 5h1v2h-1zM24 5h1v1h-1zM20 6h1v1h-1zM11 7h1v1h-1zM15 7h1v1h-1zM17 7h1v1h-1zM19 7h1v1h-1zM21 7h1v1h1v1h-1v1h-1zM23 7h1v1h-1zM27 7h1v3h1v-3h1v2h5v1h-1v1h-1v-1h-3v1h-1v1h2v1h1v-1h-1v-1h2v1h1v1h-1v1h-3v1h-1v1h1v1h-1v1h1v1h1v1h-2v1h-2v-2h1v-2h-1v-3h2v-1h-1v-1h-1v-1h-2v-1h-1v-2h1v1h1v1h1zM1 9h1v2h-1zM5 9h1v1h1v1h-1v1h-2v1h-1v2h-2v-1h1v-3h2v-1h1zM17 9h1v1h-1zM37 9h1v1h-1zM19 10h2v2h2v-2h1v1h1v1h-1v1h-1v2h-1v1h-1v-3h-2v1h-1v-1h-2v-1h-1v1h-1v1h1v-1h1v1h2v1h-1v3h-1v1h-1v-4h-2v-1h-1v-1h1v-1h1v-1h3v1h1v-1h1zM35 10h2v1h-1v1h1v1h1v1h-3zM7 11h2v1h-2zM4 13h2v1h1v1h1v1h-1v1h1v-1h1v-2h3v1h-1v1h1v1h-2v2h1v1h1v-1h-1v-1h3v1h1v1h-1v1h-1v1h-1v1h1v1h-1v1h-1v-2h-1v-2h-1v1h-3v-1h2v-1h-2v-1h2v-1h-2v-3h-1v1h-2v-1h1zM7 13h2v1h-2zM25 13h1v1h-1zM19 14h1v1h-1zM24 14h1v2h1v1h-2v1h-1v-2h1zM33 14h2v1h1v1h2v2h-1v-1h-1v1h1v1h-1v1h1v1h-1v1h-1v-2h-1v-1h-1v-1h1v-1h1v-1h-1v1h-1v1h-2v-3h2zM18 15h1v1h1v2h-1v-1h-1zM13 16h1v1h-1zM1 17h1v2h-1zM3 17h1v1h1v6h-1v1h-1v-1h-1v-3h-1v-1h1v-1h1v2h1v-2h-1zM17 18h1v2h-1zM20 18h3v1h-1v1h-1v-1h-1zM24 18h1v1h1v2h-2v1h-4v-1h2v-1h2zM26 18h1v1h-1zM32 19h1v3h1v1h2v2h1v1h-2v1h-2v-1h1v-1h1v-1h-1v1h-1v1h-2v-3h1v-1h-2v-1h2zM15 20h1v1h-1zM18 20h2v1h-1v1h1v2h-1v-1h-1zM16 21h1v2h1v3h-1v-2h-2v-1h1zM3 22v1h1v-1zM24 22h1v1h1v1h-1v1h1v1h-1v1h1v-1h4v1h-1v1h-6v1h3v1h-1v1h1v3h-1v-2h-1v-2h-1v1h-1v-2h-2v-1h-1v2h-1v1h-1v1h1v-1h1v1h2v-1h1v2h-2v1h-1v-1h-5v-1h2v-2h1v-1h-3v1h1v1h-2v-3h1v-1h1v-1h1v1h1v1h1v-2h2v-1h1v-2h3zM26 22h1v1h-1zM28 22h2v3h-1v-1h-1zM6 23h2v1h-1v1h1v1h-1v1h-1v1h1v1h-4v-2h2v-1h1zM1 24h1v1h1v2h-2zM8 24h2v3h-2v-1h1v-1h-1zM13 24h1v3h-1zM23 24v1h-1v1h-1v2h1v-2h2v-2zM37 24h1v1h-1zM7 27h1v1h-1zM11 27h2v1h-1v3h-1v-2h-2v-1h2zM35 27h1v1h2v2h-1v-1h-1v1h-1v-1h-1v-1h1zM30 28h1v1h1v-1h1v1h1v3h2v1h1v1h-1v2h1v1h1v1h-3v-3h-1v-1h-1v1h-1v1h-1v-1h-1v-1h-1v-4h-1v1h-1v-2h3zM1 29h2v1h-2zM7 29h2v1h-2zM9 30h1v2h-1zM19 30h1v1h-1zM30 30v3h3v-3zM1 31h7v7h-7zM31 31h1v1h-1zM2 32v5h5v-5zM10 32h1v1h-1zM12 32h1v1h1v1h-1v1h1v-1h2v3h-1v1h-1v-2h-2v-2h-1v-1h1zM23 32h1v2h-1zM27 32h1v1h-1zM3 33h3v3h-3zM9 33h1v1h-1zM17 34h1v1h2v2h-1v1h-1v-2h-1zM20 34h3v1h-1v1h-1v-1h-1zM24 34h1v1h2v-1h2v3h-1v-1h-4zM37 34h1v1h-1zM10 35h1v1h-1zM22 36h1v2h-3v-1h2zM30 36h1v2h-1zM33 36h1v1h-1zM9 37h1v1h-1zM12 37h1v1h-1zM16 37h1v1h-1zM25 37h1v1h-1zM32 37h1v1h-1z"/></svg>