<svg xmlns="http://www.w3.org/2000/svg" viewBox="0 0 39 39"><path d="M1 1h7v7h-7zM11 1h1v1h1v1h-2zM13 1h7v1h-1v1h-2v4h-1v-1h-1v1h-1v-1h-1v-1h1v-1h1v-1h-1v-1h-1zM21 1h3v4h-1v-1h-2v1h1v4h3v-3h1v3h1v-3h2v1h-1v2h2v2h-1v-1h-1v1h1v1h-2v-2h-4v1h-1v-1h-3v-1h2v-3h-1v-2h-1v-1h1v-1h1v1h1v-1h-1zM25 1h1v1h-1zM27 1h1v1h1v3h-3v-1h2v-1h-1zM29 1h1v1h-1zM31 1h7v7h-7zM2 2v5h5v-5zM32 2v5h5v-5zM3 3h3v3h-3zM9 3h1v2h1v2h-1v1h1v-1h1v1h1v1h-1v2h-3v-1h1v-1h-1zM25 3h1v1h-1zM33 3h3v3h-3zM18 4h1v1h-1zM24 5h1v1h-1zM29 5h1v1h-1zM12 6h1v1h-1zM19 6h1v2h-1zM23 6h1v2h-1zM13 7h1v1h-1zM15 7h1v1h-1zM17 7h1v1h-1zM29 7h1v1h-1zM1 9h1v1h-1zM3 9h5v1h-1v1h2v1h-3v-1h-1v-1h-2zM13 9h2v1h-2zM31 9h5v1h1v1h1v3h-5v-1h-1v1h-2v1h1v2h-1v-1h-1v1h-1v-1h-1v-1h2v-3h1v1h1v-1h1v-2h-1zM15 10h3v1h-2v1h-1zM33 10v2h1v1h3v-1h-1v-1h-2v-1zM1 11h1v1h2v-1h1v1h1v1h-1v1h2v1h1v1h-1v1h-1v1h-1v1h1v-1h1v1h2v1h2v1h-2v1h-2v-1h1v-1h-2v1h-1v-1h-1v-3h-1v2h-1v1h2v1h-2v1h-1v-4h1v-1h-1zM12 11h1v2h1v1h-1v1h-1v-1h-1v-1h1zM21 11h1v1h-1zM24 11h2v1h-1v1h3v1h-3v1h-1zM30 11h1v1h-1zM9 12h1v1h-1zM14 12h1v1h-1zM17 12h1v1h-1zM22 12h1v1h-1zM3 13v1h-1v2h3v-1h-1v-2zM7 13h2v2h-1v-1h-1zM18 13h1v1h2v1h-2v1h1v1h-2v1h-1v-1h-1v-1h-2v-1h3v-1h1zM22 14h1v2h1v1h-1v1h-1v-2h-1v-1h1zM32 14h1v1h2v1h-1v2h-1v-1h-1zM9 15h1v1h2v1h1v-1h1v3h-1v-1h-1v1h1v3h-1v-2h-1v-2h-2zM25 15h1v1h-1zM36 15h2v1h-2zM7 17h1v1h-1zM20 17h1v1h-1zM25 17h2v1h-1v1h-1zM31 17h1v1h-1zM35 17h1v1h1v1h1v2h-1v-1h-1v-1h-1zM37 17h1v1h-1zM15 18h2v1h2v-1h1v1h1v1h2v1h-2v1h1v3h3v-1h1v1h1v-2h-1v-2h1v-2h2v-1h1v2h-1v1h-1v2h1v1h-1v1h1v1h-4v1h-1v-1h-3v-3h-1v1h-1v-2h1v-2h-3v2h-1v-1h-1v-1h-1v-1h1zM21 18h1v1h-1zM23 18h1v2h-1zM32 18h1v3h-1v1h-2v-2h1v-1h1zM34 19h1v1h-1zM14 21h1v1h-1zM18 21h1v1h-1zM23 21h2v2h-1v-1h-1zM33 21h3v1h-1v2h-1v2h-1v-1h-1v-2h2v-1h-1zM2 22h1v1h-1zM5 22h1v1h-1zM9 22h1v1h-1zM11 22h1v1h-1zM13 22h1v3h-1zM15 22h1v1h-1zM29 22h1v1h-1zM4 23h1v2h1v1h1v1h1v1h-1v1h-2v-3h-1v-1h-1v-1h1zM6 23h2v1h-1v1h-1zM16 23h1v1h-1zM23 23h1v1h-1zM30 23h1v2h-1zM36 23h2v1h-1v2h-2v-1h1zM9 24h3v1h-1v2h-1v-2h-1zM1 25h1v1h1v1h-1v3h-1zM7 25h1v1h-1zM16 25h1v1h2v1h-3zM19 25h1v1h-1zM31 25h1v1h-1zM8 26h1v1h-1zM13 26h1v1h-1zM29 26h1v1h2v1h1v1h1v-1h1v1h1v1h-1v1h-1v1h1v1h-1v2h-1v-1h-1v1h-1v1h-1v1h-1v1h-4v-1h3v-1h-3v-1h1v-1h-1v-1h2v-1h1v1h1v-2h-1v-1h1v-2h-3v-1h3zM32 26h1v1h-1zM9 27h1v1h1v1h-1v2h-1v-1h-2v-1h1v-1h1zM12 27h1v3h1v2h-1v1h-2v1h-1v1h1v1h1v-1h-1v-1h2v-1h1v-1h1v2h-1v2h-1v1h-2v1h-2v-1h1v-1h-1v-4h3zM14 27h1v1h-1zM21 27h2v1h1v2h-1v-1h-1v-1h-1zM36 27h2v3h-1v-1h-1zM15 28h1v2h-2v-1h1zM17 28h1v1h1v1h2v-1h1v1h1v2h2v1h-2v1h-1v-1h-1v1h-1v-1h-2v-1h-1v1h1v1h-1v1h1v1h-1v2h-1v-1h-1v-3h1v-2h-1v-1h2zM19 28h1v1h-1zM30 28v1h1v-1zM3 29h1v1h-1zM25 29h2v2h-1v-1h-1zM24 30h1v1h-1zM30 30v3h3v-3zM1 31h7v7h-7zM19 31v1h2v-1zM31 31h1v1h-1zM35 31h3v2h-1v1h-1v1h-1v-2h1v-1h-1zM2 32v5h5v-5zM3 33h3v3h-3zM19 34h1v1h-1zM21 34h1v1h-1zM23 34h2v1h-1v2h-3v1h-1v-3h1v1h2zM28 34v1h2v-1zM37 34h1v4h-5v-2h1v1h3v-1h-1v-1h1zM31 36h1v1h-1zM13 37h1v1h-1zM18 37h1v1h-1zM30 37h1v1h-1z"/></svg>