<svg xmlns="http://www.w3.org/2000/svg" viewBox="0 0 39 39"><path d="M1 1h7v7h-7zM12 1h1v1h-1zM16 1h3v1h-1v1h1v-1h1v2h1v1h-2v-1h-2v-1h-1v3h1v-1h2v1h2v1h-1v1h-1v-1h-1v2h-2v-1h1v-1h-1v1h-1v-2h-2v-2h2v-2h1zM21 1h1v1h1v1h-2zM23 1h1v1h-1zM28 1h1v2h1v1h-1v1h1v1h-1v1h-1v-1h-1v1h-1v-2h1v-1h1v-1h-1v-1h1zM31 1h7v7h-7zM2 2v5h5v-5zM11 2h1v1h-1zM13 2h1v1h-1zM32 2v5h5v-5zM3 3h3v3h-3zM10 3h1v2h-1zM33 3h3v3h-3zM23 4h1v1h-1zM25 4h1v1h-1zM24 5h1v1h-1zM9 6h1v2h-1zM12 6h1v1h-1zM22 6h1v1h-1zM11 7h1v2h-1v1h-1v3h-1v1h-3v-1h2v-1h1v-3h1v-1h1zM13 7h1v2h2v1h1v1h-2v-1h-1v1h-1v1h-1v1h1v1h-1v1h1v1h-1v3h-1v2h-1v3h1v1h-1v1h-1v-2h-2v-1h1v-1h-1v-1h1v-1h-1v-1h1v-1h-1v1h-2v-1h-1v-1h4v-1h-1v-1h2v1h1v1h1v-2h-2v-1h2v-3h1v-2h1zM21 7h1v1h1v1h-2zM23 7h1v1h-1zM25 7h1v1h-1zM27 7h1v1h-1zM29 7h1v2h-1zM24 8h1v1h-1zM1 9h1v1h2v1h-2v1h-1zM4 9h1v1h-1zM6 9h2v1h-2zM18 9h1v2h-1zM20 9h1v1h2v-1h1v1h1v1h-2v2h1v2h-1v-1h-2v1h-1v-2h2v-1h-1v-1h-1zM26 9h1v3h2v2h-1v-1h-1v2h-1v1h1v-1h1v1h1v2h-1v-1h-2v1h1v1h-1v2h-1v-1h-1v-1h1v-2h-1v-2h1v-2h1zM30 9h1v1h1v1h-1v1h-2v-2h1zM32 9h1v1h-1zM5 10h1v1h-1zM34 10h2v1h-1v1h-2v-1h1zM37 10h1v2h-2v-1h1zM4 11h1v2h-1zM6 11h2v1h-2zM14 11h1v1h-1zM17 11h1v1h-1zM16 12h1v1h-1zM19 12h1v1h-1zM2 13h1v1h-1zM17 13h2v2h1v1h1v1h-1v1h2v1h-2v2h-2v-1h-2v-2h-2v5h-1v-3h-1v-1h1v-2h1v-1h1v-2h1v2h2v-2h-1zM30 13h2v1h1v1h1v2h-1v-1h-1v-1h-2zM36 13h2v7h-1v2h1v3h-1v1h1v2h-1v-1h-1v1h-1v1h-1v-2h1v-1h1v-5h-1v-3h-1v-1h2v1h1v-1h-1v-1h1v-1h-1v1h-1v-2h1zM1 14h1v1h-1zM3 14h1v3h-3v-1h1v-1h1zM13 14h1v1h-1zM5 15h1v1h-1zM21 15h2v1h-2zM31 16h1v1h1v1h-1v1h1v-1h1v2h-1v1h-1v-1h-1zM17 17v1h1v1h1v-2zM23 17h1v1h-1zM3 18h1v3h1v2h-1v1h-1v-1h-1v1h-1v-4h1v2h1zM29 18h1v2h-1zM22 19h1v1h1v1h-1v2h-2v-1h1zM6 20h1v1h-1zM27 20h2v1h1v1h1v-1h1v1h1v1h-2v1h1v2h1v1h-1v1h-1v-1h-1v-1h1v-1h-1v-2h-1v-1h-1v1h-3v-1h1v-1h1zM15 21h3v1h-3zM33 21h1v1h-1zM34 22h1v1h-1zM5 23h1v2h-1zM14 23h1v1h-1zM18 23h1v2h-1zM20 23h1v2h-1zM2 24h1v1h-1zM13 24h1v1h-1zM15 24h1v1h-1zM22 24h2v1h2v-1h2v1h-1v1h-2v2h-1v2h-2v-1h-1v-1h2v-1h1v-1h-1v-1h-1zM1 25h1v1h-1zM3 25h1v1h-1zM7 25h1v1h-1zM12 25h1v1h-1zM21 25h1v2h-1zM29 25h1v1h-1zM34 25h1v1h-1zM4 26h1v2h-1zM6 26h1v1h-1zM8 26h1v1h-1zM15 26h3v1h-2v1h1v1h-1v1h-1v2h-1v1h-2v1h-1v-3h1v1h1v-1h1v-2h-2v1h-1v-1h-1v-1h3v-1h2zM1 27h1v1h-1zM7 27h1v1h-1zM18 27h1v3h-1v1h-1v-2h1zM20 27h1v1h-1zM26 27h2v1h-1v1h-1v2h-2v-1h1v-2h1zM2 28h2v2h-3v-1h1zM5 28h2v1h1v-1h1v1h1v1h1v1h-2v-1h-4zM29 28h2v1h3v1h1v2h1v1h-1v1h-1v1h1v1h-2v1h-1v-3h-3v-2h-1v2h-2v-1h1v-4h2zM36 28h1v1h-1zM35 29h1v1h-1zM37 29h1v3h-2v-1h1zM30 30v3h3v-3zM1 31h7v7h-7zM19 31h1v1h2v2h-1v2h1v-1h2v3h-3v-1h-2v-1h1v-1h-3v1h-1v-1h-1v1h-1v1h-1v-2h1v-1h3v-1h-1v-1h3zM22 31h1v1h-1zM31 31h1v1h-1zM2 32v5h5v-5zM9 32h1v1h-1zM23 32h1v1h-1zM25 32h1v1h-1zM3 33h3v3h-3zM24 33h1v1h-1zM9 34h2v3h1v1h-3v-1h1v-2h-1zM12 34h1v1h-1zM25 34h1v1h-1zM35 34h2v1h1v1h-2v-1h-1zM29 35h2v1h-1v1h1v1h-2v-1h-2v1h-2v-2h4zM15 36h1v1h1v-1h1v1h1v1h-5v-1h1zM36 37h2v1h-2z"/></svg>