<svg xmlns="http://www.w3.org/2000/svg" viewBox="0 0 39 39"><path d="M1 1h7v7h-7zM9 1h2v1h3v1h-1v1h-2v-1h-1v-1h-1zM15 1h2v1h-1v1h1v4h-1v-3h-2v-1h1zM18 1h1v3h-1zM20 1h2v1h-1v1h-1zM24 1h1v1h-1zM26 1h4v5h-2v3h-1v-2h-1v1h-1v-2h1v-1h-1v-1h4v-2h-2v1h-1zM31 1h7v7h-7zM2 2v5h5v-5zM23 2h1v1h-1zM32 2v5h5v-5zM3 3h3v3h-3zM22 3h1v1h-1zM24 3h1v1h-1zM33 3h3v3h-3zM9 4h1v6h-3v-1h2zM13 4h1v1h1v1h-1v2h-1v-1h-1v-1h1zM19 4h1v1h-1zM18 5h1v2h-1zM24 5h1v1h-1zM20 6h1v1h-1zM23 6h1v2h1v1h1v1h-1v2h-1v1h-1v1h-1v1h1v2h1v1h1v1h1v2h-1v-1h-1v-1h-2v1h-1v-1h-1v-1h2v-2h-1v-3h-2v1h-1v-1h-2v-2h1v1h1v-1h1v-1h2v2h2v-1h1v-1h-3v-3h1v1h1zM11 7h1v1h-1zM15 7h1v1h1v-1h1v3h-3zM19 7h1v1h-1zM29 7h1v2h-1zM12 8h1v1h-1zM1 9h1v1h1v1h2v1h-3v-1h-1zM5 9h1v2h-1zM11 9h1v1h1v1h1v2h1v1h-2v-2h-1v-1h-1v2h1v1h-1v1h-1v-2h-1v1h-2v-1h1v-1h-1v-1h2v1h1v-2h1zM30 9h5v1h-1v1h-1v-1h-3zM37 9h1v1h-1zM26 10h4v1h-1v1h-2v-1h-1zM35 10h2v1h-1v1h1v1h1v1h-3zM31 11h2v1h1v1h-1v1h-3v1h-1v1h1v1h-1v1h1v1h1v1h-2v2h1v3h-1v-1h-1v2h2v1h-1v1h-3v-2h1v-3h1v-2h-1v-2h-1v-1h2v-2h-1v-2h1v-1h2v-1h1v1h1v-1h-1zM5 12h2v1h-1v1h-1zM25 12h1v2h-1zM3 14h1v1h-1zM6 14h1v1h-1zM12 14h1v1h1v2h1v1h1v3h1v2h1v3h-1v-2h-4v-1h1v-1h-1v-1h-3v-1h1v-1h1v1h2v1h1v-2h-1v-1h-2zM15 14h3v1h-1v3h-1v-1h-1zM19 14h1v1h-1zM24 14h1v2h1v1h-2zM33 14h2v1h1v1h2v2h-1v-1h-1v1h1v1h-1v1h1v1h-1v1h-1v-2h-1v-1h-1v-1h1v-1h1v-1h-1v1h-1v1h-2v-3h2zM1 15h2v2h-1v-1h-1zM7 15h2v1h-2zM18 15h1v1h1v2h-1v-1h-1zM4 16h1v1h-1zM10 16h1v2h-1v1h-1v-1h-2v-1h3zM3 17h1v1h1v1h4v1h-2v1h3v1h-3v1h-2v-3h-1v-1h-1zM5 17h1v1h-1zM17 18h1v2h-1zM1 19h1v1h2v1h-3zM32 19h1v3h1v1h2v2h1v1h-2v1h-2v-1h1v-1h1v-1h-1v1h-1v1h-2v-3h1v-1h-2v-1h2zM18 20h2v1h-1v1h1v2h-1v-1h-1zM22 20h2v1h1v2h1v1h-1v1h1v1h-1v2h-2v1h1v1h-1v1h-1v-2h-2v-1h-1v2h-1v1h-1v1h1v-1h1v1h2v-1h1v2h-2v1h-1v-1h-3v-2h-1v-1h2v-1h-3v3h-1v-1h-1v-1h1v-1h-1v-2h1v1h1v-1h3v1h1v-2h2v-1h1v-2h1v1h1v-1h1v-1h-4v-1h2zM1 22h2v1h-1v2h-1zM10 22h3v1h-1v1h1v1h-2v-1h-1v2h2v1h-1v1h-1v-1h-1v-1h-2v-1h1v-1h-1v-1h3zM15 22v1h1v-1zM26 22h1v1h-1zM3 23h2v1h-1v1h-1zM6 24h1v1h-1zM37 24h1v1h-1zM5 25h1v2h2v1h-4v-1h1zM13 25h2v1h-1v1h-1zM22 25v1h-1v2h1v-2h1v1h1v-2zM1 26h1v1h-1zM3 26h1v1h-1zM35 27h1v1h2v2h-3v-1h-1v-1h1zM30 28h1v1h1v-1h1v1h1v3h2v1h1v1h-1v2h1v1h1v1h-3v-3h-1v-1h-1v1h-1v1h-1v-1h-1v-1h-1v-4h-1v3h-1v-4h3zM1 29h3v1h-3zM6 29h2v1h-2zM10 29h1v1h-1zM25 29h1v1h-1zM9 30h1v2h-1zM19 30h1v1h-1zM24 30h1v1h1v2h-1v-1h-1zM30 30v3h3v-3zM1 31h7v7h-7zM31 31h1v1h-1zM2 32v5h5v-5zM10 32h1v1h-1zM12 32h1v1h-1zM23 32h1v2h-1zM3 33h3v3h-3zM9 33h1v1h-1zM14 33h2v1h-1v1h-2v-1h1zM10 34h1v1h-1zM17 34h1v1h2v2h-1v1h-1v-2h-1zM20 34h3v1h-1v1h-1v-1h-1zM24 34h1v3h-1zM28 34h1v3h-1v-1h-2v-1h2zM37 34h1v1h-1zM11 35h1v1h2v1h-2v1h-3v-1h2zM15 36h1v1h1v1h-3v-1h1zM22 36h1v2h-3v-1h2zM30 36h1v2h-1zM33 36h1v1h-1zM25 37h1v1h-1zM32 37h1v1h-1z"/></svg>