<svg xmlns="http://www.w3.org/2000/svg" viewBox="0 0 39 39"><path d="M1 1h7v7h-7zM11 1h1v1h2v-1h6v1h-1v1h-1v1h-1v3h-1v3h2v1h-2v1h-1v-2h-1v1h-5v1h1v1h-1v2h-1v-1h-1v-1h1v-1h-2v-1h-1v-1h-2v-1h5v1h-1v1h1v-1h2v-1h1v-3h2v1h-1v1h1v1h-1v1h1v-1h1v-1h1v-3h-1v-1h1v-1h-1v1h-1v1h-1v-2h-1zM21 1h3v4h-1v-1h-2v1h1v4h3v-3h2v1h-1v2h3v1h-6v1h-1v-1h-3v-1h2v-3h-1v-2h-1v-1h1v-1h1v1h1v-1h-1zM25 1h1v1h-1zM27 1h1v1h1v-1h1v2h-1v2h-3v-1h2v-1h-1zM31 1h7v7h-7zM2 2v5h5v-5zM16 2v1h1v-1zM32 2v5h5v-5zM3 3h3v3h-3zM9 3h1v6h-1zM25 3h1v1h-1zM33 3h3v3h-3zM18 4h1v1h-1zM13 5h1v1h-1zM24 5h1v1h-1zM29 5h1v1h-1zM19 6h1v2h-1zM23 6h1v2h-1zM28 6h1v1h-1zM13 7h1v1h-1zM17 7h1v1h-1zM27 7h1v1h-1zM29 7h1v1h-1zM1 9h1v1h-1zM31 9h5v1h1v1h1v3h-5v-1h-1v1h-2v1h1v2h-1v-1h-1v1h-1v1h-2v3h-2v-1h1v-3h2v-1h1v-1h1v-1h-4v1h-1v-4h2v1h-1v1h3v-1h-1v-1h2v-1h1v1h1v1h-1v1h1v-1h1v-2h-1zM2 10h1v1h-1zM33 10v2h1v1h3v-1h-1v-1h-2v-1zM1 11h1v1h4v1h-1v1h2v1h1v1h-1v1h1v1h-1v1h1v1h-2v1h-1v-1h-1v-1h2v-1h-1v-1h1v-1h-1v-1h-1v-2h-1v1h-2zM21 11h1v1h-1zM12 12h1v1h-1zM14 12h1v1h-1zM17 12h1v1h-1zM22 12h1v1h-1zM11 13h1v1h-1zM13 13h1v1h-1zM18 13h1v1h2v1h-2v1h1v1h-2v1h-1v-1h-2v-1h1v-1h1v-1h1zM12 14h1v1h-1zM22 14h1v2h1v1h-1v1h-1v-2h-1v-1h1zM32 14h1v1h2v1h-1v2h-1v-1h-1zM9 15h1v1h1v-1h1v2h-1v1h-1v-1h-1zM14 15h1v1h-1zM25 15h2v1h-2zM36 15h2v1h-2zM1 16h4v1h-2v1h-1v-1h-1zM13 16h1v2h-1v1h3v-1h1v1h2v-1h1v1h1v1h2v1h-2v1h1v3h3v2h-1v-1h-3v-3h-1v1h-1v-2h1v-2h-3v2h-1v-1h-1v-1h-1v1h-1v1h-1v-2h-1v-1h1v-2h1zM20 17h1v1h-1zM31 17h1v1h-1zM35 17h1v1h1v1h1v2h-1v-1h-1v-1h-1zM37 17h1v1h-1zM1 18h1v2h1v1h-1v1h-1zM3 18h1v1h-1zM9 18h1v1h-1zM21 18h1v1h-1zM23 18h1v2h-1zM29 18h1v2h-2v1h1v1h-1v1h-2v-2h1v-2h2zM32 18h1v3h-1v1h-2v-2h1v-1h1zM34 19h1v1h-1zM10 20h1v1h-1zM3 21h1v1h-1zM7 21h1v1h-1zM14 21h1v1h-1zM18 21h1v1h-1zM23 21h1v1h-1zM33 21h3v1h-1v2h-1v2h-1v-1h-1v-2h2v-1h-1zM2 22h1v2h1v-1h1v-1h1v2h-1v2h-1v-1h-3v-1h1zM9 22h3v1h-3zM13 22h1v3h-1zM15 22h1v1h-1zM24 22h1v1h-1zM29 22h1v1h-1zM7 23h1v1h-1zM16 23h1v1h-1zM23 23h1v1h-1zM28 23h1v1h-1zM30 23h1v2h-1zM36 23h2v1h-1v2h-2v-1h1zM9 24h2v1h1v1h2v1h-1v1h-1v-1h-2v-2h-1zM15 24h1v1h-1zM25 24h1v1h-1zM7 25h1v1h-1zM16 25h1v1h2v1h-4v-1h1zM19 25h1v1h-1zM26 25h1v1h-1zM28 25h2v2h2v1h1v1h1v-1h1v1h1v1h-1v1h-1v1h1v1h-1v2h-1v-1h-1v1h-1v1h-1v1h-1v1h-4v-1h-4v1h-1v-3h1v1h2v-2h2v1h-1v1h1v-1h1v-1h-1v-1h2v-2h1v2h1v-2h-1v-1h1v-2h-3v-1h3v-1h-1zM31 25h1v1h-1zM1 26h1v4h-1zM3 26h1v1h-1zM5 26h1v1h4v1h1v1h-1v2h-1v-3h-2v1h-3v-2h1zM32 26h1v1h-1zM14 27h1v1h-1zM21 27h2v1h1v2h-1v-1h-1v-1h-1zM36 27h2v3h-1v-1h-1zM15 28h1v2h-1v1h-1v1h-1v1h-2v1h-1v1h1v1h1v1h-1v1h-2v-1h1v-1h-1v-4h1v-1h1v1h1v-3h1v1h1v-1h1zM17 28h1v1h1v1h2v-1h1v1h1v2h2v1h-2v1h-1v-1h-1v1h-1v-1h-2v-1h-1v1h1v1h-1v1h1v1h-1v2h-1v-1h-1v-2h1v-1h-1v-3h2zM19 28h1v1h-1zM25 28h1v1h1v2h-1v-1h-1zM30 28v1h1v-1zM7 29h1v1h-1zM24 30h1v1h-1zM30 30v3h3v-3zM1 31h7v7h-7zM19 31v1h2v-1zM31 31h1v1h-1zM35 31h3v2h-1v1h-1v1h-1v-2h1v-1h-1zM2 32v5h5v-5zM3 33h3v3h-3zM13 33h1v2h-3v-1h2zM19 34h1v1h-1zM21 34h1v1h-1zM27 34v1h3v-1zM37 34h1v4h-5v-2h1v1h3v-1h-1v-1h1zM26 36v1h2v-1zM31 36h1v1h-1zM13 37h1v1h-1zM18 37h1v1h-1zM30 37h1v1h-1z"/></svg>