<svg xmlns="http://www.w3.org/2000/svg" viewBox="0 0 39 39"><path d="M1 1h7v7h-7zM12 1h1v1h-1zM17 1h2v2h-1v-1h-1zM22 1h1v1h1v1h1v3h-1v-1h-1v-1h-1v-1h-1v-1h1zM24 1h1v1h-1zM29 1h1v3h-1v-1h-2v-1h2zM31 1h7v7h-7zM2 2v5h5v-5zM11 2h1v1h-1zM14 2h1v1h-1zM16 2h1v1h1v1h1v3h-1v1h1v-1h1v2h-2v1h-1v-1h-1v1h1v1h1v1h-1v2h-1v-3h-1v-1h-2v1h-3v-1h1v-1h1v-1h1v1h1v-1h1v-2h-1v2h-1v-1h-1v1h-1v-1h-1v2h-1v-6h2v1h-1v1h1v1h2v-1h2v-1h1zM32 2v5h5v-5zM3 3h3v3h-3zM12 3h1v2h-2v-1h1zM19 3h1v1h-1zM33 3h3v3h-3zM26 4h3v1h-2v1h-1zM20 5h2v3h1v1h-2v-3h-1zM29 5h1v1h-1zM16 6v2h1v-2zM23 6h1v2h-1zM25 6h1v3h1v-3h2v1h-1v2h1v1h-4v1h-4v-1h2v-1h2zM29 7h1v1h-1zM1 9h1v1h-1zM3 9h5v1h-1v1h-1v1h-1v1h1v-1h1v1h1v1h-1v1h1v1h-2v1h2v-1h1v1h1v2h-1v1h1v1h-2v-1h-1v1h-2v-1h1v-1h-1v-1h-1v-1h1v-2h-1v-2h-1v1h-1v1h1v1h-1v1h-1v-4h1v-3h1v2h1v-2h-1zM20 9h1v1h-1zM31 9h5v1h1v1h1v3h-5v-1h-1v1h-2v1h1v2h-1v-1h-1v1h-1v1h-3v-1h2v-2h2v-1h-4v-1h-1v-1h2v1h2v-1h-1v-1h2v-1h1v1h1v1h-1v1h1v-1h1v-2h-1zM19 10h1v1h-1zM33 10v2h1v1h3v-1h-1v-1h-2v-1zM7 11h1v1h-1zM9 11h1v5h-1v-3h-1v-1h1zM13 11h1v3h-1v-1h-2v-1h2zM20 11h1v1h2v1h-2v2h-1v1h-1v-2h1zM18 13h1v1h-1zM11 14h2v1h-2zM14 14h2v1h1v-1h1v3h-2v1h2v1h-3v-1h-2v-1h2v-2h-1zM22 14h1v1h1v1h-1v1h-1v-1h-1v-1h1zM24 14h1v1h-1zM32 14h1v1h2v1h-1v2h-1v-1h-1zM25 15h1v1h-1zM36 15h2v1h-2zM10 16h2v1h-2zM19 17h3v1h-3zM23 17h1v1h1v1h-1v1h-1zM31 17h1v1h-1zM35 17h1v1h1v1h1v2h-1v-1h-1v-1h-1zM37 17h1v1h-1zM2 18h1v1h1v3h-1v1h1v-1h3v1h1v-1h1v2h-2v1h1v1h-1v1h1v1h-1v1h1v1h-5v-3h2v2h1v-5h-2v1h-2v-2h-1v-2h1zM7 18v1h1v-1zM11 18h2v1h1v1h-1v1h-2v-1h1v-1h-1zM29 18h1v2h-2v1h1v1h-1v1h1v1h-3v-3h1v-2h2zM32 18h1v3h-1v1h-2v-2h1v-1h1zM18 19h2v1h-2zM21 19h1v1h-1zM34 19h1v1h-1zM15 20h1v3h-2v2h1v1h-1v1h-1v-2h-2v-1h2v-3h1v1h1zM17 20h1v1h-1zM22 20h1v1h-1zM7 21h1v1h-1zM10 21h1v3h-1zM18 21h1v1h4v1h-1v1h1v1h-2v-2h-2v1h1v1h-2zM23 21h2v2h-1v-1h-1zM33 21h3v1h-1v2h-1v2h-1v-1h-1v-2h2v-1h-1zM29 22h1v1h-1zM16 23h1v1h-1zM30 23h1v2h-1zM36 23h2v1h-1v2h-2v-1h1zM15 24h1v1h-1zM25 24h1v1h4v2h2v1h1v1h1v-1h1v1h1v1h-1v1h-1v1h1v1h-1v2h-1v-1h-1v1h-1v1h-1v1h-1v1h-4v-1h3v-1h-2v-2h-1v-1h4v-2h-1v-1h1v-2h-4v-1h-1v-1h-1v-1h2zM9 25h2v2h-1v1h-1zM16 25h2v1h-1v1h1v1h-1v1h2v1h-1v2h-1v2h1v1h-2v-1h-1v-1h-1v-2h1v-1h1v1h1v-1h-1v-1h-1v-1h-1v-1h2zM31 25h1v1h-1zM1 26h1v4h-1zM18 26h2v1h-2zM21 26h1v1h-1zM26 26v1h1v-1zM28 26v1h1v-1zM32 26h1v1h-1zM20 27h1v1h1v-1h1v1h1v2h-1v-1h-1v3h1v-1h1v1h1v1h-1v1h-1v-1h-2v1h-2v-1h1v-1h1v-1h-1v1h-1v-2h1v-1h-1v-1h1zM36 27h2v2h-1v-1h-1zM10 28h2v1h3v1h-1v1h-1v-1h-1v1h1v5h-1v1h-2v-1h-1v-4h1v1h1v1h-1v1h1v-1h1v-1h-1v-4h-1zM30 28v1h1v-1zM9 29h1v2h-1zM25 29h2v1h-2zM24 30h1v1h-1zM30 30v3h3v-3zM1 31h7v7h-7zM27 31h1v1h-1zM31 31h1v1h-1zM35 31h3v2h-1v1h-1v1h-1v-2h1v-1h-1zM2 32v5h5v-5zM3 33h3v3h-3zM14 34h1v1h-1zM24 34h1v1h-1zM27 34v1h3v-1zM37 34h1v4h-5v-2h1v1h3v-1h-1v-1h1zM23 35h1v2h-3v-1h2zM15 36h1v1h-1zM17 36h1v1h-1zM31 36h1v1h-1zM9 37h1v1h-1zM12 37h1v1h-1zM14 37h1v1h-1zM18 37h1v1h-1zM20 37h1v1h-1zM30 37h1v1h-1z"/></svg>